# xmcd
#
# Track frame offsets:
#	150
#	14495
#	26332
#	42979
#	55373
#	69645
#	83309
#	101308
#	116563
#	128028
#	146038
#	160067
#	178544
#	191140
#	206823
#	224018
#
# Disc length: 3360 seconds
#
# Revision: 0
# Processed by: cddbd v1.5.1PL0 Copyright (c) Steve Scherf et al.
# Submitted via: dBpowerAMP V4.0
#
DISCID=e30d1e10
DTITLE=Various Artist - Country Ballads
DYEAR=2003
DGENRE=Country
TTITLE0=Crazy - Misc
TTITLE1=King of the Road - 
TTITLE2=A Little Bit More - 
TTITLE3=Stand By Your Man - 
TTITLE4=Your Cheating Heart - 
TTITLE5=Why me Lord - 
TTITLE6=Sometimes when we Touch - 
TTITLE7=One Day At A Time - 
TTITLE8=Dont it make my brown eyes blue - 
TTITLE9=Lucille - 
TTITLE10=Talking in your Sleep - 
TTITLE11=Stay - 
TTITLE12=I Love you because - 
TTITLE13=You needed me - 
TTITLE14=Heartaches by the Number - 
TTITLE15=Lyin' Eyes - 
EXTD=Country Ballads
EXTT0=
EXTT1=
EXTT2=
EXTT3=
EXTT4=
EXTT5=
EXTT6=
EXTT7=
EXTT8=
EXTT9=
EXTT10=
EXTT11=
EXTT12=
EXTT13=
EXTT14=
EXTT15=
PLAYORDER=
